<?xml version="1.0" encoding="UTF-8" standalone="no"?>
<!-- Created with Inkscape (http://www.inkscape.org/) -->

<svg
   xmlns:dc="http://purl.org/dc/elements/1.1/"
   xmlns:cc="http://creativecommons.org/ns#"
   xmlns:rdf="http://www.w3.org/1999/02/22-rdf-syntax-ns#"
   xmlns:svg="http://www.w3.org/2000/svg"
   xmlns="http://www.w3.org/2000/svg"
   xmlns:sodipodi="http://sodipodi.sourceforge.net/DTD/sodipodi-0.dtd"
   xmlns:inkscape="http://www.inkscape.org/namespaces/inkscape"
   width="744.09448819"
   height="1052.3622047"
   id="svg2"
   version="1.1"
   inkscape:version="0.48.3.1 r9886"
   sodipodi:docname="stopne.png">
  <defs
     id="defs4" />
  <sodipodi:namedview
     id="base"
     pagecolor="#ffffff"
     bordercolor="#666666"
     borderopacity="1.0"
     inkscape:pageopacity="0.0"
     inkscape:pageshadow="2"
     inkscape:zoom="0.35"
     inkscape:cx="-127.85714"
     inkscape:cy="520"
     inkscape:document-units="px"
     inkscape:current-layer="layer1"
     showgrid="false"
     inkscape:window-width="1280"
     inkscape:window-height="948"
     inkscape:window-x="0"
     inkscape:window-y="24"
     inkscape:window-maximized="1" />
  <metadata
     id="metadata7">
    <rdf:RDF>
      <cc:Work
         rdf:about="">
        <dc:format>image/svg+xml</dc:format>
        <dc:type
           rdf:resource="http://purl.org/dc/dcmitype/StillImage" />
        <dc:title></dc:title>
      </cc:Work>
    </rdf:RDF>
  </metadata>
  <g
     inkscape:label="Layer 1"
     inkscape:groupmode="layer"
     id="layer1">
    <path
       style="fill:#999999"
       d="m 358.58477,255.20982 c -92.15571,0 -168.97774,85.14365 -186.13135,198 -11.37718,37.269 -18.15436,84.6454 -18.15436,136.28125 0,119.92469 36.74244,217.15625 82.07344,217.15625 24.40704,0 46.29102,-28.20182 61.32568,-72.9375 19.11144,8.38459 39.58866,12.9375 60.88659,12.9375 21.93786,0 42.96205,-4.84543 62.5625,-13.71875 14.96214,41.85653 36.11541,68 59.61006,68 45.331,0 82.11316,-97.20031 82.11316,-217.125 0,-54.74433 -7.71256,-104.71307 -20.34865,-142.90625 -20.6824,-106.68319 -95.16101,-185.6875 -183.93707,-185.6875 z"
       id="path3751"
       inkscape:connector-curvature="0" />
  </g>
</svg>
